/* XPM */
static char *finfaktura[] = {
/* columns rows colors chars-per-pixel */
"23 32 170 2",
"   c #D1D10D",
".  c #D5D40C",
"X  c #D8D70B",
"o  c #EFEF03",
"O  c #EEEE0A",
"+  c #EFEF0A",
"@  c #F7F706",
"#  c #FDFD03",
"$  c #FEFE00",
"%  c yellow",
"&  c #FFFF01",
"*  c #FFFF02",
"=  c #FFFF03",
"-  c #FFFF07",
";  c #FFFF09",
":  c #FEFE14",
">  c #FEFE16",
",  c #FFFF19",
"<  c #FFFF22",
"1  c #FFFF24",
"2  c #FEFE26",
"3  c #FFFF26",
"4  c #FFFF27",
"5  c #FDFD2F",
"6  c #FFFF38",
"7  c #FEFE67",
"8  c #FFFF68",
"9  c #FCFC79",
"0  c #FDFD7A",
"q  c #FEFE7B",
"w  c #FFFF7B",
"e  c #FFFF7C",
"r  c #FFFF7D",
"t  c #FFFF7E",
"y  c #FFFF7F",
"u  c #DFDFAF",
"i  c #DFDFB2",
"p  c #FEFE90",
"a  c #FEFE92",
"s  c #E1E1AE",
"d  c #ECECB9",
"f  c #EDEDBA",
"g  c #EFEFBB",
"h  c #F9F9BA",
"j  c #FBFBBD",
"k  c #FCFBBD",
"l  c #FCFCBD",
"z  c #FCFCBE",
"x  c #FCFCBF",
"c  c #FDFCBF",
"v  c #FDFDBF",
"b  c #D0D0D0",
"n  c gray82",
"m  c #D2D2D2",
"M  c LightGray",
"N  c gray83",
"B  c #D7D7D7",
"V  c #D8D8D8",
"C  c #DADADA",
"Z  c gainsboro",
"A  c #E9E9C9",
"S  c #E9E9D9",
"D  c #ECECD9",
"F  c #EDEDD8",
"G  c #F1F1C1",
"H  c #F3F3C6",
"J  c #F2F2CB",
"K  c #F8F8C5",
"L  c #FEFEC0",
"P  c #FEFEC1",
"I  c #FFFEC0",
"U  c #FFFEC1",
"Y  c #FFFFC7",
"T  c #FBFBCA",
"R  c #FCFCC8",
"E  c #FCFCC9",
"W  c #FFFFCB",
"Q  c #FFFFCF",
"!  c #F7F7D6",
"~  c #F8F8D5",
"^  c #FAFAD7",
"/  c #FFFFD2",
"(  c #FFFFD3",
")  c #FCFCD5",
"_  c #FDFDD5",
"`  c #FEFED4",
"'  c #FEFED5",
"]  c #FFFFD4",
"[  c #FEFED6",
"{  c #FFFFD7",
"}  c #FAFAD8",
"|  c #FBFBD9",
" . c #FFFFD8",
".. c #FFFFD9",
"X. c #FFFFDA",
"o. c #FFFFDB",
"O. c #FEFEDC",
"+. c #FEFEDD",
"@. c #FFFEDD",
"#. c #FFFFDC",
"$. c #FFFFDD",
"%. c gray88",
"&. c #E1E1E1",
"*. c #E2E2E2",
"=. c gray89",
"-. c #E5E5E1",
";. c #E6E6E2",
":. c #E4E4E4",
">. c gray90",
",. c #E6E6E6",
"<. c #E2E2EB",
"1. c gray91",
"2. c #E9E9E9",
"3. c #EAEAEA",
"4. c gray92",
"5. c #EEEEEA",
"6. c #ECECEC",
"7. c gray93",
"8. c #EEEEEE",
"9. c #EFEFEF",
"0. c #EAEAF4",
"q. c #ECECF5",
"w. c #E9E9F8",
"e. c #F1F1ED",
"r. c gray94",
"t. c #F1F1F1",
"y. c gray95",
"u. c #F3F3F3",
"i. c #F4F4F0",
"p. c #F5F5F3",
"a. c #F6F6F2",
"s. c #F7F7F3",
"d. c #F4F4F4",
"f. c #F5F5F4",
"g. c gray96",
"h. c #F7F7F5",
"j. c #F6F6F6",
"k. c gray97",
"l. c #F3F3FC",
"z. c #F2F2FF",
"x. c #F4F4FF",
"c. c #F5F5FF",
"v. c #F6F6FF",
"b. c #F7F7FF",
"n. c #F7F8FF",
"m. c #F8F8F6",
"M. c #FAFAF6",
"N. c #F8F8F8",
"B. c #F9F9F9",
"V. c #FAFAF8",
"C. c gray98",
"Z. c #FBFBFB",
"A. c GhostWhite",
"S. c #F9F9FF",
"D. c #FAFAFF",
"F. c #FBFBFF",
"G. c #FCFCF8",
"H. c #FDFDF9",
"J. c #FFFFFB",
"K. c gray99",
"L. c #FDFDFD",
"P. c #FCFCFF",
"I. c #FDFDFF",
"U. c #FEFEFC",
"Y. c #FEFEFD",
"T. c #FFFFFD",
"R. c #FEFEFE",
"E. c #FEFEFF",
"W. c #FFFFFE",
"Q. c gray100",
/* pixels */
"Q.Q.Q.Q.Q.Q.Q.Q.Q.Q.Q.Q.Q.Q.Q.Q.Q.g.r.g.Q.Q.Q.",
"Q.Q.Q.Q.Q.Q.Q.Q.Q.Q.Q.Q.Q.Q.Q.Q.Q.7.,.r.C.Q.Q.",
"Q.7.b b C N b C.Q.Q.Q.Q.Q.Q.Q.Q.Q.r.,.,.2.Q.Q.",
"C.r.C N &.2.,.r.r.g.g.g.g.g.r.g.2.,.7.r.g.r.C.",
"Q.Q.&.N ,.Q.Q.Q.Q.Q.Q.Q.Q.Q.Q.Q.,.b Z ,.r.Q.Q.",
"Q.Q.&.C ,.Q.Q.Q.Q.Q.Q.Q.Q.Q.Q.Q.7.C ,.2.g.Q.Q.",
"Q.Q.g.g.g.g.g.g.C.Q.Q.Q.Q.Q.Q.Q.Q.Q.Q.Q.Q.Q.Q.",
"Q.Q.g.r.r.r.r.r.C.Q.Q.Q.Q.Q.Q.Q.Q.Q.Q.Q.Q.Q.Q.",
"Q.Q.7.r.Q.Q.Q.Q.Q.Q.Q.C.C.Q.g.C.g.g.C.7.C.Q.Q.",
"Q.Q.2.,.2.7.7.7.7.g.C.C.C.C.7.g.r.r.g.2.C.Q.Q.",
"Q.Q.Q.C.C.C.C.C.C.Q.Q.Q.Q.Q.C.Q.Q.Q.Q.C.Q.Q.Q.",
"Q.Q.Q.Q.Q.Q.Q.Q.Q.Q.Q.Q.Q.Q.Q.Q.Q.Q.Q.Q.Q.Q.Q.",
"Q.Q.Q.Q.Q.Q.Q.Q.Q.Q.Q.Q.Q.Q.Q.Q.Q.Q.Q.Q.Q.Q.Q.",
"Q.Q.Q.Q.Q.Q.Q.Q.Q.Q.Q.Q.Q.Q.Q.Q.Q.Q.Q.Q.Q.Q.Q.",
"Q.Q.Q.Q.Q.Q.Q.Q.Q.Q.Q.Q.Q.Q.Q.Q.Q.Q.Q.Q.Q.Q.Q.",
"Q.Q.Q.Q.Q.Q.Q.Q.Q.Q.Q.Q.Q.Q.Q.Q.Q.Q.Q.Q.Q.Q.Q.",
"J.Q.Q.Q.J.Q.J.Q.Q.J.Q.Q.Q.Q.Q.Q.Q.Q.Q.Q.Q.Q.Q.",
"Q.Q.Q.Q.Q.Q.Q.Q.Q.Q.D.D.D.D.D.D.D.D.D.D.D.Q.Q.",
"/ ) D S D / [ [ / K g g K G g K g u i s T W / ",
"$ o .   X $ $ $ ; 3 < 3 , , 3 3 3 : - 3 3 < $ ",
"$ $ O O @ $ $ $ 6 ) H } p p ../ ..y 5 A J Y : ",
"[ [ [ [ [ [ ....[ +.+.+.....+.+.+...) ! } +.[ ",
"Q.l.<.0.0.D.D.Q.Q.Q.Q.Q.Q.Q.Q.Q.Q.Q.Q.D.D.Q.Q.",
"Q.C.p.p.M.g.M.J.Q.Q.Q.Q.Q.Q.Q.Q.Q.Q.Q.Q.Q.Q.Q.",
"Q.M.4.7.r.Q.Q.Q.Q.Q.Q.Q.p.2.r.r.6.g.Q.Q.Q.Q.Q.",
"J.p.;.;.e.Q.J.J.J.J.J.J.s.6.e.G.M.J.J.J.J.J.J.",
"Q.Q.Q.Q.Q.Q.Q.Q.Q.Q.Q.Q.Q.Q.Q.Q.Q.Q.Q.Q.Q.Q.Q.",
"7 7 8 8 8 7 7 7 7 7 7 7 7 7 7 7 7 7 7 7 7 7 7 ",
"q q y q y q q q 9 q y q y q q y y q q y y q q ",
"c.c.Q.Q.Q.Q.Q.Q.c.D.c.Q.D.Q.Q.z.c.Q.Q.0.z.Q.Q.",
"v v L L L L v v v v k v v v L j j L L h j L v ",
"Q.Q.Q.Q.Q.Q.Q.Q.Q.Q.Q.Q.Q.Q.Q.Q.Q.Q.Q.Q.Q.Q.Q."
};
